<svg xmlns="http://www.w3.org/2000/svg" viewBox="0 0 800 400" fill="#9ca3af"><path d="M400 0 L385 20 L400 40 L415 20 Z" /><path d="M13.3,12.3H12v-0.1h-0.1v-0.1h-1v-1H10v-1h0.1v-0.1H10v-1h0.1V8h-0.1V7h0.1V6h-0.1V5h0.1V4h-0.1V3h0.1V2h-0.1V1h1v0.1h0.1v1h0.1V3h0.1V4h0.1V5h0.1V6h0.1V7h0.1V8h0.1V9h0.1v1H14v1h-0.1v0.1h-0.1v0.1h-0.1v0.1h-0.1V12h-0.1v0.1h-0.1V12H13v0.1h0.1v0.1h0.1v0.1h-1V12.3z M12.3,12.3h0.1v-0.1h-0.1V12.3z" /><!-- Simplified world path --><path d="M393,185l-2-1h-2l-1,2v2l1,1h3v-2z M483,124l-2-1h-2l-1,2v2l1,1h3v-2z M210,195l-2-1h-2l-1,2v2l1,1h3v-2z M550,250l-2-1h-2l-1,2v2l1,1h3v-2z M150,150l-2-1h-2l-1,2v2l1,1h3v-2z" /><path d="M100,100 C150,50 250,50 300,100 S400,150 450,100 S550,50 600,100 S700,150 750,100" stroke="#9ca3af" fill="transparent" stroke-width="2" /><path d="M100,200 C150,150 250,150 300,200 S400,250 450,200 S550,150 600,200 S700,250 750,200" stroke="#9ca3af" fill="transparent" stroke-width="2" /><path d="M100,300 C150,250 250,250 300,300 S400,350 450,300 S550,250 600,300 S700,350 750,300" stroke="#9ca3af" fill="transparent" stroke-width="2" /></svg>